<?xml version="1.0" standalone="no"?>
<!DOCTYPE svg PUBLIC "-//W3C//DTD SVG 20010904//EN"
 "http://www.w3.org/TR/2001/REC-SVG-20010904/DTD/svg10.dtd">
<svg version="1.0" xmlns="http://www.w3.org/2000/svg"
 width="700.000000pt" height="700.000000pt" viewBox="0 0 700.000000 700.000000"
 preserveAspectRatio="xMidYMid meet">
<metadata>
Created by potrace 1.14, written by Peter Selinger 2001-2017
</metadata>
<g transform="translate(0.000000,700.000000) scale(0.100000,-0.100000)"
fill="#000000" stroke="none">
<path d="M1490 6010 c-214 -61 -250 -342 -57 -450 55 -31 163 -34 219 -6 79
39 126 106 135 192 15 140 -85 261 -221 269 -28 1 -62 -1 -76 -5z"/>
<path d="M2842 5895 c-62 -32 -100 -76 -123 -142 -64 -182 109 -363 295 -308
68 19 119 63 152 131 23 47 26 63 22 117 -6 71 -23 111 -69 156 -46 46 -82 62
-157 67 -59 5 -73 2 -120 -21z"/>
<path d="M4417 5674 c-1 -1 -51 -5 -112 -8 -316 -17 -619 -101 -920 -254 -153
-78 -341 -205 -479 -325 l-40 -34 -65 42 c-82 52 -180 98 -291 136 -47 16 -86
29 -88 28 -1 -1 -33 5 -70 12 -73 15 -326 19 -407 6 -144 -23 -343 -94 -449
-160 -318 -197 -516 -477 -595 -837 -64 -291 9 -668 176 -922 14 -21 23 -41
20 -44 -3 -4 -42 -21 -86 -39 -206 -84 -410 -251 -527 -430 -26 -38 -54 -81
-63 -95 -36 -53 -98 -216 -117 -305 -28 -130 -32 -172 -29 -300 5 -182 16
-242 72 -397 38 -108 134 -274 198 -345 228 -254 466 -384 775 -426 74 -10
450 -12 1670 -11 866 0 1611 4 1655 8 109 10 145 14 180 20 17 3 46 8 65 11
264 44 605 179 845 336 619 403 1009 1051 1072 1779 83 967 -440 1889 -1314
2315 -275 134 -562 212 -853 230 -104 7 -220 12 -223 9z"/>
<path d="M429 5086 c-223 -57 -245 -366 -32 -457 123 -53 271 11 322 137 17
44 17 132 -1 175 -49 115 -169 175 -289 145z"/>
<path d="M335 3688 c-146 -32 -226 -209 -156 -346 89 -174 343 -174 433 1 25
50 31 136 12 189 -42 119 -162 184 -289 156z"/>
</g>
</svg>
